<mxfile host="app.diagrams.net" modified="2024-06-25T09:54:13.009Z" agent="Mozilla/5.0 (Macintosh; Intel Mac OS X 10_15_7) AppleWebKit/537.36 (KHTML, like Gecko) Chrome/126.0.0.0 Safari/537.36" etag="YhOcRvPBRbWzjR_Ip2GH" version="24.1.0" type="github">
  <diagram name="Page-1" id="tIcv80Aklig3lWJMlHud">
    <mxGraphModel dx="968" dy="684" grid="1" gridSize="10" guides="1" tooltips="1" connect="1" arrows="1" fold="1" page="1" pageScale="1" pageWidth="850" pageHeight="1100" math="0" shadow="0">
      <root>
        <mxCell id="0" />
        <mxCell id="1" parent="0" />
        <mxCell id="habistCEeHDTry_9ORMi-15" style="edgeStyle=orthogonalEdgeStyle;rounded=0;orthogonalLoop=1;jettySize=auto;html=1;exitX=0.5;exitY=1;exitDx=0;exitDy=0;entryX=0.5;entryY=0;entryDx=0;entryDy=0;" edge="1" parent="1" source="habistCEeHDTry_9ORMi-1" target="habistCEeHDTry_9ORMi-3">
          <mxGeometry relative="1" as="geometry" />
        </mxCell>
        <mxCell id="habistCEeHDTry_9ORMi-16" style="edgeStyle=orthogonalEdgeStyle;rounded=0;orthogonalLoop=1;jettySize=auto;html=1;exitX=0.5;exitY=1;exitDx=0;exitDy=0;entryX=0.5;entryY=0;entryDx=0;entryDy=0;" edge="1" parent="1" source="habistCEeHDTry_9ORMi-1" target="habistCEeHDTry_9ORMi-5">
          <mxGeometry relative="1" as="geometry" />
        </mxCell>
        <mxCell id="habistCEeHDTry_9ORMi-17" style="edgeStyle=orthogonalEdgeStyle;rounded=0;orthogonalLoop=1;jettySize=auto;html=1;exitX=0.5;exitY=1;exitDx=0;exitDy=0;entryX=0.5;entryY=0;entryDx=0;entryDy=0;" edge="1" parent="1" source="habistCEeHDTry_9ORMi-1" target="habistCEeHDTry_9ORMi-6">
          <mxGeometry relative="1" as="geometry" />
        </mxCell>
        <mxCell id="habistCEeHDTry_9ORMi-28" style="edgeStyle=orthogonalEdgeStyle;rounded=0;orthogonalLoop=1;jettySize=auto;html=1;exitX=0.5;exitY=1;exitDx=0;exitDy=0;" edge="1" parent="1" source="habistCEeHDTry_9ORMi-1" target="habistCEeHDTry_9ORMi-27">
          <mxGeometry relative="1" as="geometry" />
        </mxCell>
        <mxCell id="habistCEeHDTry_9ORMi-1" value="&lt;font style=&quot;font-size: 16px;&quot;&gt;慕容廆&lt;/font&gt;" style="rounded=1;whiteSpace=wrap;html=1;fillColor=#f8cecc;strokeColor=#b85450;" vertex="1" parent="1">
          <mxGeometry x="440" y="80" width="120" height="60" as="geometry" />
        </mxCell>
        <mxCell id="habistCEeHDTry_9ORMi-3" value="&lt;font style=&quot;font-size: 16px;&quot;&gt;慕容翰&lt;/font&gt;" style="rounded=1;whiteSpace=wrap;html=1;fillColor=#f5f5f5;strokeColor=#666666;fontColor=#333333;" vertex="1" parent="1">
          <mxGeometry x="200" y="200" width="120" height="60" as="geometry" />
        </mxCell>
        <mxCell id="habistCEeHDTry_9ORMi-18" style="edgeStyle=orthogonalEdgeStyle;rounded=0;orthogonalLoop=1;jettySize=auto;html=1;exitX=0.5;exitY=1;exitDx=0;exitDy=0;entryX=0.5;entryY=0;entryDx=0;entryDy=0;" edge="1" parent="1" source="habistCEeHDTry_9ORMi-5" target="habistCEeHDTry_9ORMi-7">
          <mxGeometry relative="1" as="geometry" />
        </mxCell>
        <mxCell id="habistCEeHDTry_9ORMi-19" style="edgeStyle=orthogonalEdgeStyle;rounded=0;orthogonalLoop=1;jettySize=auto;html=1;exitX=0.5;exitY=1;exitDx=0;exitDy=0;entryX=0.5;entryY=0;entryDx=0;entryDy=0;" edge="1" parent="1" source="habistCEeHDTry_9ORMi-5" target="habistCEeHDTry_9ORMi-8">
          <mxGeometry relative="1" as="geometry" />
        </mxCell>
        <mxCell id="habistCEeHDTry_9ORMi-20" style="edgeStyle=orthogonalEdgeStyle;rounded=0;orthogonalLoop=1;jettySize=auto;html=1;exitX=0.5;exitY=1;exitDx=0;exitDy=0;entryX=0.5;entryY=0;entryDx=0;entryDy=0;" edge="1" parent="1" source="habistCEeHDTry_9ORMi-5" target="habistCEeHDTry_9ORMi-9">
          <mxGeometry relative="1" as="geometry" />
        </mxCell>
        <mxCell id="habistCEeHDTry_9ORMi-21" style="edgeStyle=orthogonalEdgeStyle;rounded=0;orthogonalLoop=1;jettySize=auto;html=1;exitX=0.5;exitY=1;exitDx=0;exitDy=0;" edge="1" parent="1" source="habistCEeHDTry_9ORMi-5" target="habistCEeHDTry_9ORMi-10">
          <mxGeometry relative="1" as="geometry" />
        </mxCell>
        <mxCell id="habistCEeHDTry_9ORMi-5" value="&lt;font style=&quot;font-size: 16px;&quot;&gt;慕容皝&lt;/font&gt;&lt;div&gt;&lt;font style=&quot;font-size: 10px;&quot;&gt;（前燕开国君主&lt;/font&gt;&lt;font style=&quot;font-size: 12px;&quot;&gt;）&lt;/font&gt;&lt;/div&gt;" style="rounded=1;whiteSpace=wrap;html=1;fillColor=#d5e8d4;strokeColor=#82b366;" vertex="1" parent="1">
          <mxGeometry x="360" y="200" width="120" height="60" as="geometry" />
        </mxCell>
        <mxCell id="habistCEeHDTry_9ORMi-6" value="&lt;font style=&quot;font-size: 16px;&quot;&gt;慕容仁&lt;/font&gt;" style="rounded=1;whiteSpace=wrap;html=1;fillColor=#f5f5f5;strokeColor=#666666;fontColor=#333333;" vertex="1" parent="1">
          <mxGeometry x="520" y="200" width="120" height="60" as="geometry" />
        </mxCell>
        <mxCell id="habistCEeHDTry_9ORMi-24" style="edgeStyle=orthogonalEdgeStyle;rounded=0;orthogonalLoop=1;jettySize=auto;html=1;exitX=0.5;exitY=1;exitDx=0;exitDy=0;entryX=0.5;entryY=0;entryDx=0;entryDy=0;" edge="1" parent="1" source="habistCEeHDTry_9ORMi-7" target="habistCEeHDTry_9ORMi-11">
          <mxGeometry relative="1" as="geometry" />
        </mxCell>
        <mxCell id="habistCEeHDTry_9ORMi-25" style="edgeStyle=orthogonalEdgeStyle;rounded=0;orthogonalLoop=1;jettySize=auto;html=1;exitX=0.5;exitY=1;exitDx=0;exitDy=0;" edge="1" parent="1" source="habistCEeHDTry_9ORMi-7" target="habistCEeHDTry_9ORMi-12">
          <mxGeometry relative="1" as="geometry" />
        </mxCell>
        <mxCell id="habistCEeHDTry_9ORMi-26" style="edgeStyle=orthogonalEdgeStyle;rounded=0;orthogonalLoop=1;jettySize=auto;html=1;exitX=0.5;exitY=1;exitDx=0;exitDy=0;entryX=0.5;entryY=0;entryDx=0;entryDy=0;" edge="1" parent="1" source="habistCEeHDTry_9ORMi-7" target="habistCEeHDTry_9ORMi-22">
          <mxGeometry relative="1" as="geometry" />
        </mxCell>
        <mxCell id="habistCEeHDTry_9ORMi-7" value="&lt;font style=&quot;font-size: 16px;&quot;&gt;慕容儁&lt;/font&gt;" style="rounded=1;whiteSpace=wrap;html=1;fillColor=#d5e8d4;strokeColor=#82b366;" vertex="1" parent="1">
          <mxGeometry x="200" y="320" width="120" height="60" as="geometry" />
        </mxCell>
        <mxCell id="habistCEeHDTry_9ORMi-8" value="&lt;font style=&quot;font-size: 16px;&quot;&gt;慕容恪&lt;/font&gt;" style="rounded=1;whiteSpace=wrap;html=1;fillColor=#f5f5f5;strokeColor=#666666;fontColor=#333333;" vertex="1" parent="1">
          <mxGeometry x="360" y="320" width="120" height="60" as="geometry" />
        </mxCell>
        <mxCell id="habistCEeHDTry_9ORMi-23" style="edgeStyle=orthogonalEdgeStyle;rounded=0;orthogonalLoop=1;jettySize=auto;html=1;exitX=0.5;exitY=1;exitDx=0;exitDy=0;" edge="1" parent="1" source="habistCEeHDTry_9ORMi-9" target="habistCEeHDTry_9ORMi-13">
          <mxGeometry relative="1" as="geometry" />
        </mxCell>
        <mxCell id="habistCEeHDTry_9ORMi-9" value="&lt;font style=&quot;font-size: 16px;&quot;&gt;慕容垂&lt;/font&gt;&lt;div&gt;&lt;font style=&quot;font-size: 10px;&quot;&gt;（后燕开国君主）&lt;/font&gt;&lt;/div&gt;" style="rounded=1;whiteSpace=wrap;html=1;fillColor=#ffe6cc;strokeColor=#d79b00;" vertex="1" parent="1">
          <mxGeometry x="520" y="320" width="120" height="60" as="geometry" />
        </mxCell>
        <mxCell id="habistCEeHDTry_9ORMi-10" value="&lt;font style=&quot;font-size: 16px;&quot;&gt;慕容德&lt;/font&gt;&lt;div&gt;&lt;font style=&quot;font-size: 10px;&quot;&gt;（南燕开国君主 ）&lt;/font&gt;&lt;/div&gt;" style="rounded=1;whiteSpace=wrap;html=1;fillColor=#dae8fc;strokeColor=#6c8ebf;" vertex="1" parent="1">
          <mxGeometry x="680" y="320" width="120" height="60" as="geometry" />
        </mxCell>
        <mxCell id="habistCEeHDTry_9ORMi-11" value="&lt;font style=&quot;font-size: 16px;&quot;&gt;慕容暐&lt;/font&gt;&lt;div&gt;&lt;font style=&quot;font-size: 10px;&quot;&gt;（前燕末代君主）&lt;/font&gt;&lt;/div&gt;" style="rounded=1;whiteSpace=wrap;html=1;fillColor=#d5e8d4;strokeColor=#82b366;" vertex="1" parent="1">
          <mxGeometry x="40" y="440" width="120" height="60" as="geometry" />
        </mxCell>
        <mxCell id="habistCEeHDTry_9ORMi-12" value="&lt;font style=&quot;font-size: 16px;&quot;&gt;慕容泓&lt;/font&gt;&lt;div&gt;&lt;font style=&quot;font-size: 10px;&quot;&gt;（西燕政权建立者）&lt;/font&gt;&lt;/div&gt;" style="rounded=1;whiteSpace=wrap;html=1;fillColor=#e1d5e7;strokeColor=#9673a6;" vertex="1" parent="1">
          <mxGeometry x="200" y="440" width="120" height="60" as="geometry" />
        </mxCell>
        <mxCell id="habistCEeHDTry_9ORMi-13" value="&lt;font style=&quot;font-size: 16px;&quot;&gt;慕容宝&lt;/font&gt;" style="rounded=1;whiteSpace=wrap;html=1;fillColor=#ffe6cc;strokeColor=#d79b00;" vertex="1" parent="1">
          <mxGeometry x="520" y="440" width="120" height="60" as="geometry" />
        </mxCell>
        <mxCell id="habistCEeHDTry_9ORMi-22" value="&lt;font style=&quot;font-size: 16px;&quot;&gt;慕容冲&lt;/font&gt;&lt;div&gt;&lt;font style=&quot;&quot;&gt;&lt;font style=&quot;font-size: 10px;&quot;&gt;（西燕政权第二位君主）&lt;/font&gt;&lt;br&gt;&lt;/font&gt;&lt;/div&gt;" style="rounded=1;whiteSpace=wrap;html=1;fillColor=#e1d5e7;strokeColor=#9673a6;" vertex="1" parent="1">
          <mxGeometry x="360" y="440" width="120" height="60" as="geometry" />
        </mxCell>
        <mxCell id="habistCEeHDTry_9ORMi-27" value="&lt;font style=&quot;font-size: 16px;&quot;&gt;慕容昭&lt;/font&gt;" style="rounded=1;whiteSpace=wrap;html=1;fillColor=#f5f5f5;strokeColor=#666666;fontColor=#333333;" vertex="1" parent="1">
          <mxGeometry x="680" y="200" width="120" height="60" as="geometry" />
        </mxCell>
      </root>
    </mxGraphModel>
  </diagram>
</mxfile>
